<svg width="12" height="9" viewBox="0 0 12 9" fill="none" xmlns="http://www.w3.org/2000/svg">
<path fill-rule="evenodd" clip-rule="evenodd" d="M1.81123 8.71687L5.68827 5.18489L5.68947 5.18377C6.10343 4.80626 6.10343 4.19416 5.68947 3.81666L1.81123 0.283548C1.39667 -0.0945168 0.724367 -0.0945168 0.310408 0.283548C-0.103551 0.661051 -0.103551 1.27316 0.310408 1.65122L3.43823 4.50021L0.310408 7.3492C-0.103551 7.7267 -0.103551 8.33937 0.310408 8.71687C0.724367 9.09438 1.39667 9.09438 1.81123 8.71687Z" fill="#525252"/>
<path fill-rule="evenodd" clip-rule="evenodd" d="M7.60149 7.60838L7.6015 1.6084C7.6068 1.04818 7.16146 0.608398 6.60122 0.608398C6.00028 0.608398 5.6015 1.1084 5.58603 1.6084L5.58603 7.5718C5.58074 8.13201 6.10067 8.60838 6.60122 8.60848C7.10236 8.60859 7.59578 8.16904 7.60149 7.60838Z" fill="#525252"/>
</svg>
