<svg width="12" height="9" viewBox="0 0 12 9" fill="none" xmlns="http://www.w3.org/2000/svg">
<path fill-rule="evenodd" clip-rule="evenodd" d="M9.19017 0.283127L5.31314 3.81511L5.31193 3.81623C4.89797 4.19374 4.89797 4.80584 5.31193 5.18334L9.19017 8.71645C9.60473 9.09452 10.277 9.09452 10.691 8.71645C11.105 8.33895 11.105 7.72684 10.691 7.34878L7.56317 4.49979L10.691 1.6508C11.105 1.2733 11.105 0.660629 10.691 0.283127C10.277 -0.0943756 9.60473 -0.0943756 9.19017 0.283127Z" fill="#525252"/>
<path fill-rule="evenodd" clip-rule="evenodd" d="M3.39992 1.39162L3.3999 7.3916C3.39461 7.95182 3.83994 8.3916 4.40018 8.3916C5.00112 8.3916 5.3999 7.8916 5.41537 7.3916L5.41537 1.4282C5.42067 0.867986 4.90073 0.391623 4.40018 0.391519C3.89905 0.391408 3.40562 0.83096 3.39992 1.39162Z" fill="#525252"/>
</svg>
