<svg width="11" height="9" viewBox="0 0 11 9" fill="none" xmlns="http://www.w3.org/2000/svg">
<path fill-rule="evenodd" clip-rule="evenodd" d="M1.81081 8.71687L5.68784 5.18489L5.68904 5.18377C6.103 4.80626 6.103 4.19416 5.68904 3.81666L1.81081 0.283548C1.39625 -0.0945168 0.72394 -0.0945168 0.309981 0.283548C-0.103978 0.661051 -0.103978 1.27316 0.309981 1.65122L3.4378 4.50021L0.309981 7.3492C-0.103978 7.7267 -0.103978 8.33937 0.309981 8.71687C0.72394 9.09438 1.39625 9.09438 1.81081 8.71687Z" fill="#525252"/>
<path fill-rule="evenodd" clip-rule="evenodd" d="M7.60106 7.60838L7.60107 1.6084C7.60637 1.04818 7.16103 0.608398 6.60079 0.608398C5.99985 0.608398 5.60107 1.1084 5.5856 1.6084L5.5856 7.5718C5.58031 8.13201 6.10025 8.60838 6.60079 8.60848C7.10193 8.60859 7.59535 8.16904 7.60106 7.60838Z" fill="#525252"/>
</svg>
