<svg width="11" height="9" viewBox="0 0 11 9" fill="none" xmlns="http://www.w3.org/2000/svg">
<path fill-rule="evenodd" clip-rule="evenodd" d="M1.8113 8.71687L5.68833 5.18489L5.68953 5.18377C6.10349 4.80626 6.10349 4.19416 5.68953 3.81666L1.8113 0.283548C1.39674 -0.0945168 0.724428 -0.0945168 0.310469 0.283548C-0.10349 0.661051 -0.10349 1.27316 0.310469 1.65122L3.43829 4.50021L0.310469 7.3492C-0.10349 7.7267 -0.10349 8.33937 0.310469 8.71687C0.724428 9.09438 1.39674 9.09438 1.8113 8.71687Z" fill="#525252"/>
<path fill-rule="evenodd" clip-rule="evenodd" d="M7.60155 7.60838L7.60156 1.6084C7.60686 1.04818 7.16152 0.608398 6.60128 0.608398C6.00034 0.608398 5.60156 1.1084 5.58609 1.6084L5.58609 7.5718C5.5808 8.13201 6.10073 8.60838 6.60128 8.60848C7.10242 8.60859 7.59584 8.16904 7.60155 7.60838Z" fill="#525252"/>
</svg>
