<svg width="11" height="9" viewBox="0 0 11 9" fill="none" xmlns="http://www.w3.org/2000/svg">
<path fill-rule="evenodd" clip-rule="evenodd" d="M9.18968 0.283127L5.31265 3.81511L5.31145 3.81623C4.89749 4.19374 4.89749 4.80584 5.31145 5.18334L9.18968 8.71645C9.60424 9.09452 10.2765 9.09452 10.6905 8.71645C11.1045 8.33895 11.1045 7.72684 10.6905 7.34878L7.56268 4.49979L10.6905 1.6508C11.1045 1.2733 11.1045 0.660629 10.6905 0.283127C10.2765 -0.0943756 9.60424 -0.0943756 9.18968 0.283127Z" fill="#525252"/>
<path fill-rule="evenodd" clip-rule="evenodd" d="M3.39943 1.39162L3.39941 7.3916C3.39412 7.95182 3.83945 8.3916 4.3997 8.3916C5.00064 8.3916 5.39941 7.8916 5.41488 7.3916L5.41489 1.4282C5.42018 0.867986 4.90024 0.391623 4.3997 0.391519C3.89856 0.391408 3.40513 0.83096 3.39943 1.39162Z" fill="#525252"/>
</svg>
