<svg width="12" height="9" viewBox="0 0 12 9" fill="none" xmlns="http://www.w3.org/2000/svg">
<path fill-rule="evenodd" clip-rule="evenodd" d="M9.18996 0.283127L5.31292 3.81511L5.31172 3.81623C4.89776 4.19374 4.89776 4.80584 5.31172 5.18334L9.18996 8.71645C9.60452 9.09452 10.2768 9.09452 10.6908 8.71645C11.1047 8.33895 11.1047 7.72684 10.6908 7.34878L7.56296 4.49979L10.6908 1.6508C11.1047 1.2733 11.1047 0.660629 10.6908 0.283127C10.2768 -0.0943756 9.60452 -0.0943756 9.18996 0.283127Z" fill="#525252"/>
<path fill-rule="evenodd" clip-rule="evenodd" d="M3.3997 1.39162L3.39969 7.3916C3.39439 7.95182 3.83973 8.3916 4.39997 8.3916C5.00091 8.3916 5.39969 7.8916 5.41516 7.3916L5.41516 1.4282C5.42045 0.867986 4.90052 0.391623 4.39997 0.391519C3.89883 0.391408 3.40541 0.83096 3.3997 1.39162Z" fill="#525252"/>
</svg>
