<svg width="120" height="120" viewBox="0 0 120 120" fill="none" xmlns="http://www.w3.org/2000/svg">
<path d="M99.3048 17.5312L59.5782 63.9609L42.7969 47.1562C35.9766 40.3828 25.3828 51 32.2031 57.7734L54.7032 80.2969C56.0625 81.6562 57.9375 82.5 60 82.5C62.2735 82.5 64.3125 81.4688 65.6954 79.875L110.695 27.2812C116.93 20.0156 105.539 10.3359 99.3048 17.5312Z" fill="#55B559"/>
<path d="M60 120C26.9062 120 0 93.0938 0 60C0 26.9062 26.9062 0 60 0C66.3984 0 72.7031 1.00781 78.7266 2.97656C88.2656 6.09375 83.4141 20.2969 74.0625 17.2266C69.5391 15.75 64.8047 15 60 15C35.1797 15 15 35.1797 15 60C15 84.8203 35.1797 105 60 105C84.8203 105 105 84.8203 105 60C105 58.2891 104.906 56.625 104.719 54.9844C104.133 44.8125 118.406 43.7812 119.625 53.3438C119.859 55.5234 120 57.75 120 60.0234C120 93.0938 93.0938 120 60 120Z" fill="#55B559"/>
</svg>
