<svg width="200" height="200" viewBox="0 0 200 200" fill="none" xmlns="http://www.w3.org/2000/svg">
<path d="M66.667 150C57.5003 150 50.0837 157.5 50.0837 166.667C50.0837 175.833 57.5003 183.333 66.667 183.333C75.8337 183.333 83.3337 175.833 83.3337 166.667C83.3337 157.5 75.8337 150 66.667 150ZM16.667 16.6667V33.3334H33.3337L63.3337 96.5834L52.0837 117C50.7503 119.333 50.0003 122.083 50.0003 125C50.0003 134.167 57.5003 141.667 66.667 141.667H166.667V125H70.167C69.0003 125 68.0837 124.083 68.0837 122.917L68.3337 121.917L75.8337 108.333H137.917C144.167 108.333 149.667 104.917 152.5 99.7501L182.334 45.6667C183 44.5001 183.334 43.0834 183.334 41.6667C183.334 37.0834 179.584 33.3334 175 33.3334H51.7503L43.917 16.6667H16.667ZM150 150C140.834 150 133.417 157.5 133.417 166.667C133.417 175.833 140.834 183.333 150 183.333C159.167 183.333 166.667 175.833 166.667 166.667C166.667 157.5 159.167 150 150 150Z" fill="#D9D9D9"/>
</svg>
